<svg width="468" height="58" viewBox="0 0 468 58" fill="none" xmlns="http://www.w3.org/2000/svg">
    <rect width="468" height="58" fill="#FEE500"/>
    <g transform="translate(74, 0)">
        <path d="M92 18C85.3743 18 80 22.2121 80 27.4101C80 30.7485 82.2274 33.6794 85.5685 35.3535L84.4376 39.5412C84.4196 39.5935 84.4144 39.6493 84.4225 39.704C84.4306 39.7587 84.4518 39.8107 84.4843 39.8556C84.5168 39.9005 84.5596 39.937 84.6093 39.9622C84.6589 39.9873 84.7138 40.0003 84.7695 40C84.8458 39.9969 84.9191 39.9695 84.9785 39.9219L89.839 36.6616C90.5547 36.7644 91.2768 36.8166 92 36.8177C98.638 36.8177 104 32.6081 104 27.4101C104 22.2121 98.6257 18 92 18Z"
              fill="black" fill-opacity="0.9"/>
        <path d="M124.854 28.0318V21.7417H123.182V37.4731H124.854V29.4054H127.296V28.0318H124.854ZM113.573 23.3391V24.7003H119.098C119.036 25.5953 118.899 26.4468 118.657 27.261L112.765 27.6464L113.001 29.0884L118.153 28.6036C117.215 30.5988 115.518 32.2956 112.665 33.6941L113.585 34.9496C119.328 32.1153 120.758 27.9945 120.764 23.3391H113.573ZM140.41 28.0318V21.7417H138.738V37.4731H140.41V29.4054H142.853V28.0318H140.41ZM129.129 23.3391V24.7003H134.655C134.593 25.5953 134.456 26.4468 134.213 27.261L128.321 27.6464L128.557 29.0884L133.71 28.6036C132.771 30.5988 131.075 32.2956 128.222 33.6941L129.142 34.9496C134.885 32.1153 136.314 27.9945 136.32 23.3391H129.129ZM151.691 31.0525C154.624 30.8039 156.688 29.2376 156.688 26.8819C156.688 24.3646 154.233 22.7051 150.864 22.6989C147.514 22.7051 145.059 24.3646 145.059 26.8819C145.059 29.2376 147.116 30.8039 150.037 31.0463V34.1478H143.698V35.5276H158.111V34.1478H151.691V31.0525ZM146.681 26.8819C146.681 25.1727 148.44 24.0477 150.864 24.0539C153.307 24.0477 155.059 25.1727 155.059 26.8819C155.059 28.6471 153.307 29.741 150.864 29.7535C148.44 29.741 146.681 28.6471 146.681 26.8819ZM167.247 31.4441H172.269V30.0767H162.666V27.7769H171.903V22.8605H160.976V24.2217H170.256V26.4344H161.007V31.4441H165.594V34.2162H159.254V35.6022H173.668V34.2162H167.247V31.4441ZM190.573 37.5228H192.252V21.7417H190.573V37.5228ZM184.986 23.0532H183.308V25.7507C183.295 28.759 181.555 31.7673 179.075 32.8736L180.107 34.2659C181.99 33.3522 183.438 31.4441 184.165 29.1381C184.905 31.2949 186.334 33.0663 188.143 33.9302L189.15 32.6001C186.707 31.5249 184.973 28.6285 184.986 25.7507V23.0532ZM207.137 25.788V21.7417H205.465V31.2327H207.137V27.1989H209.418V25.788H207.137ZM199.442 27.2113C200.126 28.7528 201.425 29.9834 203.209 30.5988L204.06 29.3059C201.649 28.4979 200.256 26.5836 200.256 24.5698V24.1347H203.656V22.7859H195.122V24.1347H198.591V24.5635C198.578 26.7265 197.093 28.7652 194.638 29.6043L195.533 30.8971C197.385 30.2445 198.752 28.9081 199.442 27.2113ZM205.465 33.3646V37.4917H207.137V32.0159H196.726V33.3646H205.465ZM222.588 28.125V21.7417H220.935V37.4917H222.588V29.511H225.111V28.125H222.588ZM214.116 21.9468V24.2093H210.232V25.5704H219.561V24.2093H215.782V21.9468H214.116ZM214.962 26.7327C212.687 26.7327 211.033 28.2493 211.04 30.3999C211.033 32.5566 212.687 34.0546 214.962 34.0608C217.212 34.0546 218.865 32.5566 218.871 30.3999C218.865 28.2493 217.212 26.7327 214.962 26.7327ZM214.962 32.6685C213.613 32.6747 212.625 31.761 212.637 30.3999C212.625 29.0449 213.613 28.1126 214.962 28.1126C216.292 28.1126 217.268 29.0449 217.28 30.3999C217.268 31.761 216.292 32.6747 214.962 32.6685ZM237.287 37.4917H238.965V21.7417H237.287V37.4917ZM226.789 23.4385V24.7686H232.582C232.252 28.442 230.214 31.2825 226.024 33.2714L226.907 34.6202C232.314 32.0407 234.272 28.0442 234.285 23.4385H226.789Z"
              fill="#2D2D2D"/>
    </g>
</svg>